<svg xmlns="http://www.w3.org/2000/svg" width="100" height="500"><path fill="#093C75" d="M0 0h100v500H0V0Z"/><path fill="#005D09" d="M50 461h4l4 11 3-7h5l-1 7 1.25-2 1.75-2h4c.25 5.625.25 5.625-2 9l12-1v-6c4.75.75 4.75.75 7 3l2-2c2.625-.125 2.625-.125 5 0l-1 6h5v23H0c0-28 0-28 1-32h4l2 6h2v-7h4l2 8 1.172-2.188L17.75 470l1.547-2.813L21 465h4v6l2-5h5l1 9h16c.704-4.925 1.1-9.105 1-14Z"/><path fill="#FEFEFF" d="M33 359c3 1.625 3 1.625 5 4 .813 3.25.813 3.25 1 6l2-1c4.197-.494 7.782-.7 11.5 1.438 2.648 4.523 3.004 9.294 1.875 14.375-2.55 4.056-5.09 5.878-9.75 7C41 391 41 391 37.915 390.507c-4.764-.618-9.372-.53-14.165-.445C8.14 390.2 8.14 390.2 2 388c-1.971-3.942-1.454-8.704-1-13 1.285-3.156 2.88-5.44 6-7 1.46.082 2.918.19 4.375.313 2.408.11 2.408.11 4.625-.313 2.41-2.74 2.41-2.74 4-6 3.54-3.933 8.045-3.786 13-3ZM94.477 389.531c3.032.564 3.753.963 5.523 3.469.262 2.517.35 4.781.293 7.293l-.013 2.14a710.601 710.601 0 0 1-.093 6.755c-.015 1.527-.028 3.055-.04 4.583-.034 3.744-.085 7.486-.147 11.229-4.466.05-8.931.086-13.397.11-1.518.01-3.036.024-4.554.04-2.187.025-4.374.037-6.56.045l-3.984.032c-3.37-.218-5.555-.62-8.505-2.227-3.268-4.901-2.533-10.275-2-16 .814-3.257 1.284-3.736 4-6 4.555-.73 8.632-.456 13 1l1.188-3.188c3.433-7.714 7.08-9.37 15.289-9.28Z"/><path fill="#12C4FC" d="M70 454c1.56 3.119 1.36 5.573 1 9-2.063 2.063-2.063 2.063-5 3-3.813-.813-3.813-.813-7-2l-1-7c3.76-3.76 6.973-3.251 12-3Z"/><path fill="#13C4FD" d="m8.066 455.902 2.496.036 2.504.027L15 456c.925 4.716 1.23 7.673-1 12l-5-1v2l-4-2a757.916 757.916 0 0 1-.063-4.938l-.035-2.777c.126-2.944.223-3.244 3.164-3.383Z"/><path fill="#FEFEFE" d="M81 24v4c-2.297 1.148-3.583 1.116-6.133 1.098l-2.441-.01-2.551-.026-2.574-.013c-2.1-.012-4.2-.03-6.301-.049v-4c2.583-.168 5.167-.335 7.75-.5l2.21-.145C74.319 24.142 77.635 24 81 24ZM50 24c1.675.286 3.344.618 5 1l-1 4c-3.754 1.204-7.332 1.099-11.25 1.063l-3.828-.028L36 30v-4l2.809-.184 3.629-.253 3.62-.247c2.828.007 2.828.007 3.942-1.316ZM83 342h16v4H83v-4Z"/><path fill="#FFF" d="M53 343h16v4H53v-4Z"/><path fill="#FEFEFE" d="M28 343h16v4H29l-1-4ZM16 26h15v4H16v-4Z"/><path fill="#FFF" d="M87 24h13v4H87v-4Z"/><path fill="#FEFEFE" d="M5 342h10l1 4H5v-4ZM11 26v4L1 31v-4c3.406-.778 6.508-1.1 10-1Z"/></svg>